<?xml version="1.0" encoding="UTF-8" standalone="no"?>
<!DOCTYPE svg PUBLIC "-//W3C//DTD SVG 1.1//EN" "http://www.w3.org/Graphics/SVG/1.1/DTD/svg11.dtd">
<svg width="100%" height="100%" viewBox="0 0 64 64" version="1.1" xmlns="http://www.w3.org/2000/svg" xmlns:xlink="http://www.w3.org/1999/xlink" xml:space="preserve" xmlns:serif="http://www.serif.com/" style="fill-rule:evenodd;clip-rule:evenodd;stroke-linejoin:round;stroke-miterlimit:1.41421;">
    <g transform="matrix(0.125,0,0,0.125,0,0)">
        <path d="M257,133L257,115L134,114L136,45C136,45 145.874,-1.653 259,1C372.126,3.653 382,52 382,52L382,192C382,192 369.735,246.612 319,247C268.265,247.388 182,247 182,247C182,247 117.091,251.79 117,307C116.909,362.21 116,382 116,382L64,382C64,382 -1.131,366.907 1,256C3.131,145.093 74,133 74,133L257,133Z" style="fill:rgb(56,115,166);"/>
        <path d="M187,39C206.69,37.954 209.755,53.976 209,63C208.245,72.024 205.404,81.671 187,83C172.754,84.029 163.624,77.765 164,59C164.158,51.123 169.429,39.934 187,39Z" style="fill:white;"/>
    </g>
    <g transform="matrix(-0.125,-1.53081e-17,1.53081e-17,-0.125,63.8686,64.1114)">
        <path d="M257,133L257,115L134,114L136,45C136,45 145.874,-1.653 259,1C372.126,3.653 382,52 382,52L382,192C382,192 369.735,246.612 319,247C268.265,247.388 182,247 182,247C182,247 117.091,251.79 117,307C116.909,362.21 116,382 116,382L64,382C64,382 -1.131,366.907 1,256C3.131,145.093 74,133 74,133L257,133Z" style="fill:rgb(255,212,69);"/>
        <path d="M187,39C206.69,37.954 209.755,53.976 209,63C208.245,72.024 205.404,81.671 187,83C172.754,84.029 163.624,77.765 164,59C164.158,51.123 169.429,39.934 187,39Z" style="fill:white;"/>
    </g>
</svg>
