<?xml version="1.0" encoding="UTF-8" standalone="no"?>
<!DOCTYPE svg PUBLIC "-//W3C//DTD SVG 1.1//EN" "http://www.w3.org/Graphics/SVG/1.1/DTD/svg11.dtd">
<svg width="100%" height="100%" viewBox="0 0 64 64" version="1.1" xmlns="http://www.w3.org/2000/svg" xmlns:xlink="http://www.w3.org/1999/xlink" xml:space="preserve" xmlns:serif="http://www.serif.com/" style="fill-rule:evenodd;clip-rule:evenodd;stroke-linecap:round;stroke-linejoin:round;stroke-miterlimit:1.5;">
    <g transform="matrix(0.278261,0,0,0.292237,0,0)">
        <path d="M123,196C123,196 107.902,177.794 106,160C104.098,142.206 105.423,106.116 120,87C134.577,67.884 151,22 151,22L94,11C94,11 99.405,20.456 98,26C96.595,31.544 81.525,72.12 73,87C64.475,101.88 52.281,130.32 49,144C45.719,157.68 46,187 46,187L123,196Z" style="fill:rgb(189,202,211);"/>
    </g>
    <g transform="matrix(0.278261,0,0,0.292237,0,0)">
        <path d="M81,142C82.997,154.867 82.208,191.232 82.208,191.232L46,187C46,187 44.807,153.79 53,131C61.193,108.21 67,104 67,104C67,104 79.003,129.133 81,142Z" style="fill:rgb(231,238,244);"/>
    </g>
    <g transform="matrix(0.278261,0,0,0.292237,0,0)">
        <path d="M51,180C58.13,180.375 96.089,185.467 110,186" style="fill:none;stroke:rgb(38,38,38);stroke-width:2px;"/>
    </g>
    <g transform="matrix(0.240531,0,0,0.292237,1.92424,-3.79909)">
        <path d="M51,180C58.13,180.375 96.089,185.467 110,186" style="fill:none;stroke:rgb(38,38,38);stroke-width:2.13px;"/>
    </g>
    <g transform="matrix(0.240531,0,0,0.292237,2.20251,-8.18265)">
        <path d="M51,180C58.13,180.375 96.089,185.467 110,186" style="fill:none;stroke:rgb(38,38,38);stroke-width:2.13px;"/>
    </g>
    <g transform="matrix(0.240531,0,0,0.292237,2.48077,-12.5662)">
        <path d="M51,180C58.13,180.375 96.089,185.467 110,186" style="fill:none;stroke:rgb(38,38,38);stroke-width:2.13px;"/>
    </g>
    <g transform="matrix(0.155637,0,0,0.292237,21.0016,-41.4977)">
        <path d="M51,180C58.13,180.375 96.089,185.467 110,186" style="fill:none;stroke:rgb(38,38,38);stroke-width:2.44px;"/>
    </g>
    <g transform="matrix(0.155637,0,0,0.292237,20.7234,-44.7123)">
        <path d="M51,180C58.13,180.375 96.089,185.467 110,186" style="fill:none;stroke:rgb(38,38,38);stroke-width:2.44px;"/>
    </g>
    <g transform="matrix(0.2028,0,0,0.292237,6.90936,-16.9498)">
        <path d="M51,180C58.13,180.375 96.089,185.467 110,186" style="fill:none;stroke:rgb(38,38,38);stroke-width:2.27px;"/>
    </g>
    <g transform="matrix(0.278261,0,0,0.292237,0,0)">
        <path d="M182,182L131,112C131,112 142.279,98.766 143,92C143.721,85.234 141,66 141,66C141,66 130.75,27.575 88,38C45.25,48.425 51.841,87.153 53,96C53.679,101.181 59,109 59,109C59,109 64.964,122.095 85,125C105.036,127.905 119,120 119,120L156,200C156,200 154.159,188.391 165,183C175.841,177.609 182,182 182,182Z" style="fill:rgb(74,102,114);"/>
    </g>
    <g transform="matrix(0.278261,0,0,0.292237,0,0)">
        <path d="M86,115C96.361,115.01 122.514,110.503 133,94C143.486,77.497 143.725,58.002 132,47C120.275,35.998 92.171,29.867 70,47C47.829,64.133 49.056,91.086 57,100C64.944,108.914 75.639,114.99 86,115Z"/>
    </g>
    <g transform="matrix(0.278261,0,0,0.292237,0,0)">
        <path d="M68,103C74.984,107.085 95.423,115.498 115,104C134.577,92.502 139.05,68.279 134,58C128.95,47.721 108.157,27.274 76,45C43.843,62.726 56.285,96.148 68,103Z" style="fill:rgb(64,191,234);"/>
    </g>
    <g transform="matrix(0.278261,0,0,0.292237,0,0)">
        <path d="M73,102C80.874,103.864 96.423,108.498 116,97C135.577,85.502 136.05,65.279 131,55C125.95,44.721 104.199,29.778 76,45C48.732,59.72 54.955,97.727 73,102Z" style="fill:rgb(231,238,244);stroke:rgb(231,238,244);stroke-width:1px;"/>
    </g>
    <g transform="matrix(0.278261,0,0,0.292237,0,0)">
        <path d="M120,119L159,188C159,188 157.853,190.572 157,193C156.147,195.428 156,200 156,200L120,119Z" style="fill:rgb(64,191,234);"/>
    </g>
    <g transform="matrix(0.278261,0,0,0.292237,0,0)">
        <path d="M128,109L181,181C181,181 179.083,180.046 175,180C170.917,179.954 168,181 168,181C168,181 157.107,167.367 151,161C144.893,154.633 133.27,136.397 129,125C124.73,113.603 123,109 123,109L128,109Z"/>
    </g>
    <g transform="matrix(0.278261,0,0,0.292237,0,0)">
        <path d="M155,197C154.864,190.021 161.264,180.281 175,180C188.736,179.719 185.47,191.993 183,195C180.53,198.007 173.978,205.022 167,205C157.773,204.971 155.088,201.51 155,197Z" style="fill:rgb(204,204,204);"/>
    </g>
    <g transform="matrix(0.1005,0.0213971,-0.0203737,0.105548,13.8648,5.42365)">
        <text x="73px" y="93px" style="font-family:'ArialMT', 'Arial', sans-serif;font-size:15.357px;">item01 #0.01</text>
    </g>
    <g transform="matrix(0.1005,0.0213971,-0.0203737,0.105548,25.2735,8.05378)">
        <text x="73px" y="93px" style="font-family:'ArialMT', 'Arial', sans-serif;font-size:15.357px;">$2.02</text>
    </g>
    <g transform="matrix(0.1005,0.0213971,-0.0203737,0.105548,23.6039,11.2684)">
        <text x="73px" y="93px" style="font-family:'ArialMT', 'Arial', sans-serif;font-size:15.357px;">$2.02</text>
    </g>
    <g transform="matrix(0.1005,0.0213971,-0.0203737,0.105548,22.4908,14.483)">
        <text x="73px" y="93px" style="font-family:'ArialMT', 'Arial', sans-serif;font-size:15.357px;">$2.02</text>
    </g>
    <g transform="matrix(0.0877433,0.0186811,-0.0177877,0.0921505,12.8984,10.38)">
        <text x="73px" y="93px" style="font-family:'ArialMT', 'Arial', sans-serif;font-size:15.357px;">item01 #0.01</text>
    </g>
    <g transform="matrix(0.081365,0.0173232,-0.0164947,0.0854519,12.4153,14.9038)">
        <text x="73px" y="93px" style="font-family:'ArialMT', 'Arial', sans-serif;font-size:15.357px;">item01 #0.01</text>
    </g>
    <g transform="matrix(0.278261,0,0,0.292237,0,0)">
        <path d="M62,75C62,75 75.902,54.293 90,53C104.098,51.707 106.883,56.805 111,60C115.117,63.195 119.753,67.025 124,63C128.247,58.975 126.428,53.686 123,50C119.572,46.314 103.031,38.978 89,44C63.537,53.114 62,75 62,75Z" style="fill:rgb(254,254,254);"/>
    </g>
</svg>
